<?xml version="1.0" standalone="no"?><!DOCTYPE svg PUBLIC "-//W3C//DTD SVG 1.1//EN" "http://www.w3.org/Graphics/SVG/1.1/DTD/svg11.dtd"><svg t="1581870832046" class="icon" viewBox="0 0 1024 1024" version="1.1" xmlns="http://www.w3.org/2000/svg" p-id="5420" xmlns:xlink="http://www.w3.org/1999/xlink" width="32" height="32"><defs><style type="text/css"></style></defs><path d="M896.17 334.19c-17.67 0-32 14.33-32 32v401.66H162.31V256.1h516.23c17.67 0 32-14.33 32-32s-14.33-32-32-32H130.31c-17.67 0-32 14.33-32 32v575.75c0 17.67 14.33 32 32 32h765.87c17.67 0 32-14.33 32-32V366.19c-0.01-17.67-14.33-32-32.01-32z" p-id="5421" fill="#d4237a"></path><path d="M640.2 383.79c0-17.67-14.33-32-32-32H288.1c-17.67 0-32 14.33-32 32s14.33 32 32 32h320.1c17.67 0 32-14.33 32-32zM288.34 512.09c-17.67 0-32 14.33-32 32s14.33 32 32 32h191.57c17.67 0 32-14.33 32-32s-14.33-32-32-32H288.34zM539.38 698.56a31.79 31.79 0 0 0 17.67 5.34c10.36 0 20.53-5.03 26.69-14.3l297.05-447.38c9.78-14.72 5.76-34.58-8.96-44.36-14.72-9.78-34.58-5.77-44.36 8.96L530.42 654.2c-9.77 14.72-5.76 34.58 8.96 44.36z" p-id="5422" fill="#d4237a"></path></svg>