<?xml version="1.0" standalone="no"?><!DOCTYPE svg PUBLIC "-//W3C//DTD SVG 1.1//EN" "http://www.w3.org/Graphics/SVG/1.1/DTD/svg11.dtd"><svg t="1581870711636" class="icon" viewBox="0 0 1080 1024" version="1.1" xmlns="http://www.w3.org/2000/svg" p-id="2897" width="33.75" height="32" xmlns:xlink="http://www.w3.org/1999/xlink"><defs><style type="text/css"></style></defs><path d="M875.95103428 723.22836612c-28.49303497 0-49.19797354 20.70493857-49.19797354 49.1979744v75.41156602c0 14.24651748-16.14605362 30.39257109-30.3925711 30.39257022H183.38032901c-14.24651748 0-30.39257109-16.14605362-30.39257023-30.39257022V197.8168001c0-14.24651748 16.14605362-30.39257109 30.39257023-30.39257021h613.17011425c14.24651748 0 30.39257109 16.14605362 30.39257109 30.39257021V280.44660166c0 28.49303497 20.70493857 49.19797354 49.19797354 49.19797441 28.49303497 0 49.00801992-20.70493857 49.00801992-49.19797441V183.38032901c0-64.5842127-56.60616269-121.38032901-121.380329-121.38032901H176.16209346l-1.89953526 0.18995362C118.98606992 69.97805 62 117.4664419 62 183.38032901v657.23934198c0 75.03165879 59.26551328 121.38032901 114.16209346 121.38032901h627.60658535c30.39257109 0 61.35500214-12.91684219 84.71929043-35.14140967 23.17433555-22.22456748 36.47108496-50.90755606 36.47108496-78.83073017V772.42634053c0.18995362-28.49303497-20.51498497-49.19797354-49.00801992-49.19797441z" p-id="2898" fill="#d4237a"></path><path d="M897.60574092 352.2490499H616.66441543c-65.72393437 0-113.21232627 41.40987714-121.1903754 105.23427627l-0.1899536 0.94976807v126.6990293c0 62.87463105 54.51667383 114.16209346 121.38032899 114.16209346h280.9413255c30.77247744 0 59.83537325-12.72688857 81.6800335-35.71127052 20.70493857-21.65470664 32.48205997-50.33769521 32.48205995-78.45082294v-111.50274375c0-74.84170518-59.26551328-121.38032901-114.16209345-121.38032989z m23.17433466 121.38032989v104.2845082c0 14.24651748-16.14605362 30.39257109-30.39257021 30.39257021H616.66441543c-14.24651748 0-23.17433555-15.76614638-23.17433555-30.39257021v-104.2845082c0-14.62642471 8.92781807-30.39257109 23.17433554-30.3925711h266.5048544c21.46475303 0 37.61080664 16.14605362 37.61080576 30.3925711z" p-id="2899" fill="#d4237a"></path><path d="M824.09371016 525.86661026m-58.88560518 0a58.88560605 58.88560605 0 1 0 117.77121123 0 58.88560605 58.88560605 0 1 0-117.77121123 0Z" p-id="2900" fill="#d4237a"></path></svg>