<?xml version="1.0" standalone="no"?><!DOCTYPE svg PUBLIC "-//W3C//DTD SVG 1.1//EN" "http://www.w3.org/Graphics/SVG/1.1/DTD/svg11.dtd"><svg t="1582461882403" class="icon" viewBox="0 0 1024 1024" version="1.1" xmlns="http://www.w3.org/2000/svg" p-id="3230" xmlns:xlink="http://www.w3.org/1999/xlink" width="64" height="64"><defs><style type="text/css"></style></defs><path d="M916.48 493.5168l-159.7952 155.7504 37.7344 220.16a57.1904 57.1904 0 0 1-83.0976 60.3648l-197.7856-104.0384-197.5296 103.8336a57.2416 57.2416 0 0 1-83.0464-60.3648l37.6832-220.16-159.7952-155.5456a57.2928 57.2928 0 0 1 31.744-97.6896L363.52 363.776 462.1824 163.84a56.832 56.832 0 0 1 51.2-31.8976 56.832 56.832 0 0 1 51.2 31.8976l98.7648 200.1408 220.8256 32.0512A57.2928 57.2928 0 0 1 916.48 493.5168z" fill="#d81e06" p-id="3231"></path></svg>